<svg xmlns="http://www.w3.org/2000/svg" viewBox="0 0 100 100" width="100" height="100">
  <!-- Rounded square background similar to Instagram logo -->
  <rect width="100" height="100" rx="20" fill="#262626" />
  
  <!-- Simple GitHub Octocat logo in the center -->
  <path fill="#FFFFFF" d="M50 10c-22 0-40 18-40 40s18 40 40 40 40-18 40-40-18-40-40-40zM47 76c-1 1-3 1-4 1s-3 0-4-1c-1-1-2-3-2-5 0-1 0-2 1-2 1-1 2 0 3 0 1 1 3 1 4 1s3 0 4-1c1 0 1-1 2-1s2-1 3 0c1 0 1 1 1 2 0 2-1 4-2 5zm18-12c-1 2-2 3-3 4s-3 2-5 2h-18c-2 0-3-1-5-2-2-1-3-2-4-4-1-2-1-3-1-5 0-2 1-4 2-5 1-2 3-2 4-3l2 0c1 0 1 0 1 1 0 1 0 2 0 3s0 2 0 3c0 1-1 2-1 2h8c0-1-1-1-1-2v-3c0-1 0-2 0-3s0-1 1-1l2 0c2 1 4 1 5 3 1 1 2 3 2 5 0 2 0 3-1 5z"/>
</svg>
